<svg xmlns="http://www.w3.org/2000/svg" width="320" height="96" viewBox="0 0 320 96" fill="none">
  <defs>
    <linearGradient id="mc_g" x1="20" y1="20" x2="76" y2="76" gradientUnits="userSpaceOnUse">
      <stop stop-color="#2563EB"/>
      <stop offset="1" stop-color="#06B6D4"/>
    </linearGradient>
  </defs>

  <!-- Mark -->
  <rect x="14" y="14" width="68" height="68" rx="16" fill="url(#mc_g)"/>
  <path
    d="M30 66V33l18 18 18-18v33"
    stroke="white"
    stroke-width="6"
    stroke-linecap="round"
    stroke-linejoin="round"
  />
  <path d="M26.5 28h4.2" stroke="white" stroke-width="6" stroke-linecap="round"/>
  <path d="M65.3 28h4.2" stroke="white" stroke-width="6" stroke-linecap="round"/>
  <circle cx="48" cy="52" r="4.4" fill="white"/>

  <!-- Wordmark -->
  <g fill="#0B1220">
    <path d="M111.8 66V30.4h9l15.1 26 15.1-26h8.9V66h-8.5V44.7l-12.9 21.3h-5.3L120.4 44.7V66h-8.6Z"/>
    <path d="M190.2 66.8c-5.1 0-9.2-1.5-12.1-4.4-3-3-4.4-7-4.4-12.2 0-5.2 1.5-9.3 4.4-12.2 2.9-3 7-4.4 12.1-4.4 4 0 7.4 1.1 10 3.2 2.7 2.1 4.3 4.9 5 8.4h-8.2c-.4-1.7-1.2-3-2.6-4-1.4-1-3.1-1.5-5.1-1.5-2.8 0-5 .9-6.6 2.7-1.6 1.8-2.4 4.4-2.4 7.8s.8 6 2.4 7.8c1.6 1.8 3.8 2.7 6.6 2.7 2.1 0 3.8-.5 5.2-1.5 1.4-1 2.3-2.3 2.6-4h8.2c-.7 3.6-2.4 6.4-5 8.5-2.6 2.1-6 3.1-10.1 3.1Z"/>
    <path d="M214.3 66V31.8h8.1V66h-8.1Z"/>
    <path d="M232.4 66V40h7.8v3.7c1-1.6 2.3-2.8 4-3.5 1.7-.8 3.6-1.2 5.7-1.2 3.8 0 6.8 1.2 8.8 3.5 2 2.3 3 5.6 3 9.7V66h-8.1V53.2c0-2.1-.4-3.7-1.3-4.9-.9-1.1-2.3-1.7-4.2-1.7-2.1 0-3.8.7-5 2.1-1.2 1.4-1.8 3.2-1.8 5.5V66h-8.1Z"/>
    <path d="M280.5 66.8c-3.9 0-7.1-.9-9.6-2.6-2.5-1.7-3.9-4.1-4.2-7.2h8c.2 1.4.9 2.4 2 3.1 1.1.7 2.4 1.1 4.1 1.1 1.6 0 2.9-.3 3.8-.9.9-.6 1.4-1.4 1.4-2.4 0-.9-.4-1.6-1.2-2-.8-.5-2.1-.9-4-1.2l-2.2-.4c-3.3-.6-5.8-1.6-7.4-3-1.6-1.4-2.5-3.4-2.5-5.9 0-3 1.2-5.4 3.6-7.1 2.4-1.7 5.5-2.6 9.3-2.6 3.6 0 6.6.8 8.8 2.4 2.3 1.6 3.6 3.9 3.9 6.8h-7.8c-.2-1.2-.8-2.1-1.7-2.7-.9-.6-2.1-.9-3.6-.9-1.5 0-2.7.3-3.6.8-.8.6-1.3 1.3-1.3 2.2 0 .9.4 1.5 1.2 2 .8.4 2.1.8 4 1.1l2.2.4c3.4.6 5.9 1.6 7.5 3.1 1.7 1.5 2.5 3.5 2.5 6 0 3.1-1.2 5.5-3.7 7.2-2.5 1.7-5.7 2.6-9.8 2.6Z"/>
  </g>
</svg>


